<mxfile host="app.diagrams.net" agent="Mozilla/5.0 (Macintosh; Intel Mac OS X 10_15_7) AppleWebKit/537.36 (KHTML, like Gecko) Chrome/127.0.0.0 Safari/537.36" version="24.7.6">
  <diagram name="第 1 页" id="_o-NHqm5kNj5wMjtTiSq">
    <mxGraphModel dx="1244" dy="668" grid="1" gridSize="10" guides="1" tooltips="1" connect="1" arrows="1" fold="1" page="1" pageScale="1" pageWidth="827" pageHeight="1169" math="0" shadow="0">
      <root>
        <mxCell id="0" />
        <mxCell id="1" parent="0" />
        <mxCell id="Ws8Qmr2RkA3Kc9muPqMI-12" style="edgeStyle=orthogonalEdgeStyle;rounded=0;orthogonalLoop=1;jettySize=auto;html=1;exitX=1;exitY=0.5;exitDx=0;exitDy=0;entryX=0;entryY=0.5;entryDx=0;entryDy=0;" parent="1" source="jPnBOiImL2e6noczrev8-2" target="Ws8Qmr2RkA3Kc9muPqMI-5" edge="1">
          <mxGeometry relative="1" as="geometry" />
        </mxCell>
        <mxCell id="jPnBOiImL2e6noczrev8-2" value="" style="rounded=0;whiteSpace=wrap;html=1;fillColor=none;dashed=1;" parent="1" vertex="1">
          <mxGeometry x="300" y="80" width="140" height="90" as="geometry" />
        </mxCell>
        <mxCell id="jPnBOiImL2e6noczrev8-1" value="查方案" style="rounded=0;whiteSpace=wrap;html=1;fillColor=none;" parent="1" vertex="1">
          <mxGeometry x="322.5" y="90" width="97.5" height="30" as="geometry" />
        </mxCell>
        <mxCell id="Ws8Qmr2RkA3Kc9muPqMI-1" value="DB用例库" style="rounded=0;whiteSpace=wrap;html=1;fillColor=none;direction=south;" parent="1" vertex="1">
          <mxGeometry x="175" y="25" width="395" height="35" as="geometry" />
        </mxCell>
        <mxCell id="Ws8Qmr2RkA3Kc9muPqMI-11" style="edgeStyle=orthogonalEdgeStyle;rounded=0;orthogonalLoop=1;jettySize=auto;html=1;exitX=1;exitY=0.5;exitDx=0;exitDy=0;entryX=0;entryY=0.5;entryDx=0;entryDy=0;" parent="1" source="Ws8Qmr2RkA3Kc9muPqMI-2" target="jPnBOiImL2e6noczrev8-2" edge="1">
          <mxGeometry relative="1" as="geometry" />
        </mxCell>
        <mxCell id="Ws8Qmr2RkA3Kc9muPqMI-2" value="获取用例参数" style="rounded=0;whiteSpace=wrap;html=1;fillColor=none;" parent="1" vertex="1">
          <mxGeometry x="175" y="100" width="100" height="50" as="geometry" />
        </mxCell>
        <mxCell id="Ws8Qmr2RkA3Kc9muPqMI-4" value="计费" style="rounded=0;whiteSpace=wrap;html=1;fillColor=none;" parent="1" vertex="1">
          <mxGeometry x="322.5" y="130" width="97.5" height="30" as="geometry" />
        </mxCell>
        <mxCell id="Ws8Qmr2RkA3Kc9muPqMI-5" value="计费结果" style="rounded=0;whiteSpace=wrap;html=1;fillColor=none;" parent="1" vertex="1">
          <mxGeometry x="470" y="100" width="100" height="50" as="geometry" />
        </mxCell>
        <mxCell id="Ws8Qmr2RkA3Kc9muPqMI-8" style="edgeStyle=orthogonalEdgeStyle;rounded=0;orthogonalLoop=1;jettySize=auto;html=1;dashed=1;" parent="1" edge="1">
          <mxGeometry relative="1" as="geometry">
            <mxPoint x="225" y="60" as="sourcePoint" />
            <mxPoint x="224.57" y="99" as="targetPoint" />
            <Array as="points">
              <mxPoint x="224.07" y="61" />
              <mxPoint x="224.07" y="61" />
            </Array>
          </mxGeometry>
        </mxCell>
        <mxCell id="Ws8Qmr2RkA3Kc9muPqMI-9" value="参数" style="rounded=0;whiteSpace=wrap;html=1;fillColor=none;" parent="1" vertex="1">
          <mxGeometry x="195" y="32.5" width="60" height="20" as="geometry" />
        </mxCell>
        <mxCell id="Ws8Qmr2RkA3Kc9muPqMI-10" value="计费结果" style="rounded=0;whiteSpace=wrap;html=1;fillColor=none;" parent="1" vertex="1">
          <mxGeometry x="490" y="32.5" width="60" height="20" as="geometry" />
        </mxCell>
        <mxCell id="Ws8Qmr2RkA3Kc9muPqMI-13" style="edgeStyle=orthogonalEdgeStyle;rounded=0;orthogonalLoop=1;jettySize=auto;html=1;dashed=1;" parent="1" edge="1">
          <mxGeometry relative="1" as="geometry">
            <mxPoint x="520.05" y="61" as="sourcePoint" />
            <mxPoint x="519.62" y="100" as="targetPoint" />
            <Array as="points">
              <mxPoint x="519.12" y="62" />
              <mxPoint x="519.12" y="62" />
            </Array>
          </mxGeometry>
        </mxCell>
        <mxCell id="Ws8Qmr2RkA3Kc9muPqMI-14" value="结果比较" style="text;html=1;align=center;verticalAlign=middle;whiteSpace=wrap;rounded=0;" parent="1" vertex="1">
          <mxGeometry x="520" y="70" width="60" height="30" as="geometry" />
        </mxCell>
        <mxCell id="Ws8Qmr2RkA3Kc9muPqMI-15" value="预发分支" style="text;html=1;align=center;verticalAlign=middle;whiteSpace=wrap;rounded=0;fontStyle=1" parent="1" vertex="1">
          <mxGeometry x="343" y="180" width="67" height="20" as="geometry" />
        </mxCell>
      </root>
    </mxGraphModel>
  </diagram>
</mxfile>
